<svg xmlns="http://www.w3.org/2000/svg" viewBox="0 0 45 45">
      <g
        fill="none"
        stroke="#000"
        stroke-width="1.5"
        stroke-linecap="round"
        stroke-linejoin="round"
      >
        <path d="M 22,10 C 19.5,10 17,12 17,14 17,15.5 18,16.5 18,16.5 l 3.5,0 c 0,0 1,1.5 0.5,2.5 C 21.5,20 20.5,20 20.5,20 l -2,0.5 c 0,0 0,1 1,1 1,0 3,0 3,-2 l 1,0 c 0,-1 -1.5,-1.5 -1.5,-1.5 -1.5,-0.5 -2.5,-2 -2.5,-3 0,-1 0.5,-1.5 1,-1.5 0.5,0 1,0.5 1,0.5 l -0.5,2 -3.5,-1 c 0,0 0.5,-2.5 3.5,-2.5 3,0 4.5,2 4.5,2 l -1.5,2.5 c 0,0 0.5,1 1,1 0.5,0 1.5,-1 1.5,-1 l 1,-3.5 C 31,11 28.5,9.5 27.5,9.5 26.5,9.5 25,10 25,10" />
        <path d="M 12.5,37 C 12.5,37 10.5,35.5 10.5,34.5 10.5,33.5 12.5,32 12.5,32 l 20,0 C 32.5,32 34.5,33.5 34.5,34.5 34.5,35.5 32.5,37 32.5,37 l -20,0 z" />
        <path d="m 14,32 2.5,-11.5 12.5,0 L 31,32" />
        <path d="m 14,20.5 17,0" />
      </g>
    </svg>